<svg xmlns="http://www.w3.org/2000/svg" version="1.1" xmlns:xlink="http://www.w3.org/1999/xlink" xmlns:svgjs="http://svgjs.dev/svgjs" width="1000" height="1000"><style>
    #light-icon {
      display: inline;
    }
    #dark-icon {
      display: none;
    }

    @media (prefers-color-scheme: dark) {
      #light-icon {
        display: none;
      }
      #dark-icon {
        display: inline;
      }
    }
  </style><g id="light-icon"><svg xmlns="http://www.w3.org/2000/svg" version="1.1" xmlns:xlink="http://www.w3.org/1999/xlink" xmlns:svgjs="http://svgjs.dev/svgjs" width="1000" height="1000"><g clip-path="url(#SvgjsClipPath1218)"><rect width="1000" height="1000" fill="#213644"></rect><g transform="matrix(2,0,0,2,0,0)"><svg xmlns="http://www.w3.org/2000/svg" version="1.1" xmlns:xlink="http://www.w3.org/1999/xlink" xmlns:svgjs="http://svgjs.dev/svgjs" width="500" height="500"><svg xmlns="http://www.w3.org/2000/svg" xmlns:xlink="http://www.w3.org/1999/xlink" width="500" zoomAndPan="magnify" viewBox="0 0 375 374.999991" height="500" preserveAspectRatio="xMidYMid meet" version="1.0"><defs><clipPath id="8fc92a942e"><path d="M 79.023438 55.625 L 295.773438 55.625 L 295.773438 319.625 L 79.023438 319.625 Z M 79.023438 55.625 " clip-rule="nonzero"></path></clipPath><clipPath id="3f1d87623c"><path d="M 26.542969 47.675781 L 348.292969 47.675781 L 348.292969 136.175781 L 26.542969 136.175781 Z M 26.542969 47.675781 " clip-rule="nonzero"></path></clipPath><clipPath id="34ba0b7ec4"><path d="M 251.003906 75 L 260.703125 75 L 260.703125 96.878906 L 251.003906 96.878906 Z M 251.003906 75 " clip-rule="nonzero"></path></clipPath><clipPath id="e6f8493f6b"><path d="M 68.238281 248.203125 L 329 248.203125 L 329 325.878906 L 68.238281 325.878906 Z M 68.238281 248.203125 " clip-rule="nonzero"></path></clipPath><clipPath id="d364439205"><path d="M 108 198 L 173 198 L 173 273 L 108 273 Z M 108 198 " clip-rule="nonzero"></path></clipPath><clipPath id="29f016f829"><path d="M 108.683594 211.433594 L 124.792969 198.941406 L 172.390625 260.324219 L 156.285156 272.8125 Z M 108.683594 211.433594 " clip-rule="nonzero"></path></clipPath><clipPath id="0769d2b95e"><path d="M 94 146 L 191 146 L 191 262 L 94 262 Z M 94 146 " clip-rule="nonzero"></path></clipPath><clipPath id="9c639e2b62"><path d="M 94.71875 158.511719 L 110.828125 146.023438 L 190.628906 248.9375 L 174.523438 261.425781 Z M 94.71875 158.511719 " clip-rule="nonzero"></path></clipPath><clipPath id="14b1bda6a3"><path d="M 92.253906 136.199219 L 112.636719 136.199219 L 112.636719 178.226562 L 92.253906 178.226562 Z M 92.253906 136.199219 " clip-rule="nonzero"></path></clipPath><clipPath id="f3d999e2e5"><path d="M 84 119 L 110 119 L 110 142 L 84 142 Z M 84 119 " clip-rule="nonzero"></path></clipPath><clipPath id="048e707957"><path d="M 84.636719 129.949219 L 102.644531 119.195312 L 109.726562 131.054688 L 91.71875 141.808594 Z M 84.636719 129.949219 " clip-rule="nonzero"></path></clipPath><clipPath id="SvgjsClipPath1218"><rect width="1000" height="1000" x="0" y="0" rx="200" ry="200"></rect></clipPath></defs><rect x="-37.5" width="450" fill="#ffffff" y="-37.499999" height="449.999989" fill-opacity="1"></rect><rect x="-37.5" width="450" fill="#213644" y="-37.499999" height="449.999989" fill-opacity="1"></rect><g clip-path="url(#8fc92a942e)"><path fill="#c6ab7c" d="M 94.339844 139.828125 L 167.542969 238.558594 L 92.566406 159.328125 L 92.566406 250.257812 L 140.070312 277.554688 L 166.835938 293.152344 L 186.332031 319.386719 C 185.625 319.207031 184.738281 319.035156 184.027344 318.5 L 133.335938 289.253906 L 82.464844 260.007812 C 80.335938 258.765625 79.097656 256.464844 79.097656 254.160156 L 79.097656 136.816406 C 79.097656 134.15625 80.691406 131.675781 82.996094 130.613281 L 84.769531 129.726562 Z M 260.78125 112.710938 L 260.78125 69.105469 L 250.675781 69.105469 L 250.675781 98.527344 L 237.03125 90.90625 L 237.03125 55.632812 L 274.253906 55.632812 L 274.253906 120.507812 L 292.507812 130.96875 C 294.636719 132.207031 295.875 134.511719 295.875 136.816406 L 295.875 254.160156 C 295.875 256.816406 294.28125 259.121094 291.796875 260.183594 L 241.636719 289.253906 L 201.398438 312.472656 L 200.515625 311.589844 L 199.980469 313.359375 L 192.539062 303.253906 L 191.828125 302.546875 L 192.007812 302.371094 L 118.625 203.640625 L 204.769531 294.925781 L 234.902344 277.554688 L 282.230469 250.257812 L 282.230469 140.714844 L 260.78125 128.308594 Z M 190.941406 72.296875 L 241.636719 101.722656 L 250.675781 106.859375 L 250.675781 122.457031 L 234.902344 113.242188 L 187.398438 85.941406 L 140.070312 113.242188 L 106.925781 132.386719 L 98.769531 121.574219 L 133.335938 101.722656 L 184.027344 72.296875 C 186.332031 71.054688 188.8125 71.234375 190.941406 72.296875 " fill-opacity="1" fill-rule="nonzero"></path></g><path fill="#c6ab7c" d="M 213.277344 117.140625 L 213.277344 134.335938 C 213.277344 135.753906 212.035156 136.992188 210.617188 136.992188 L 193.421875 136.992188 C 192.007812 136.992188 190.765625 135.753906 190.765625 134.335938 L 190.765625 117.140625 C 190.765625 115.722656 192.007812 114.480469 193.421875 114.480469 L 210.617188 114.480469 C 212.035156 114.480469 213.277344 115.722656 213.277344 117.140625 " fill-opacity="1" fill-rule="evenodd"></path><path fill="#c6ab7c" d="M 213.277344 148.515625 L 213.277344 165.707031 C 213.277344 167.128906 212.035156 168.367188 210.617188 168.367188 L 193.421875 168.367188 C 192.007812 168.367188 190.765625 167.128906 190.765625 165.707031 L 190.765625 148.515625 C 190.765625 146.921875 192.007812 145.855469 193.421875 145.855469 L 210.617188 145.855469 C 212.035156 145.855469 213.277344 146.921875 213.277344 148.515625 " fill-opacity="1" fill-rule="evenodd"></path><path fill="#c6ab7c" d="M 184.207031 117.140625 L 184.207031 134.335938 C 184.207031 135.753906 182.964844 136.992188 181.546875 136.992188 L 164.355469 136.992188 C 162.761719 136.992188 161.695312 135.753906 161.695312 134.335938 L 161.695312 117.140625 C 161.695312 115.722656 162.761719 114.480469 164.355469 114.480469 L 181.546875 114.480469 C 182.964844 114.480469 184.207031 115.722656 184.207031 117.140625 " fill-opacity="1" fill-rule="evenodd"></path><path fill="#c6ab7c" d="M 184.207031 148.515625 L 184.207031 165.707031 C 184.207031 167.128906 182.964844 168.367188 181.546875 168.367188 L 164.355469 168.367188 C 162.761719 168.367188 161.695312 167.128906 161.695312 165.707031 L 161.695312 148.515625 C 161.695312 146.921875 162.761719 145.855469 164.355469 145.855469 L 181.546875 145.855469 C 182.964844 145.855469 184.207031 146.921875 184.207031 148.515625 " fill-opacity="1" fill-rule="evenodd"></path><g clip-path="url(#3f1d87623c)"><path fill="#c6ab7c" d="M 187.5 61.582031 L 348.457031 136.144531 L 188.121094 48.261719 L 187.851562 47.730469 L 187.5 47.921875 L 187.148438 47.730469 L 186.878906 48.261719 L 26.542969 136.144531 L 187.5 61.582031 " fill-opacity="1" fill-rule="nonzero"></path></g><g clip-path="url(#34ba0b7ec4)"><path fill="#213644" d="M 251.003906 75 L 260.703125 75 L 260.703125 96.863281 L 251.003906 96.863281 Z M 251.003906 75 " fill-opacity="1" fill-rule="nonzero"></path></g><g clip-path="url(#e6f8493f6b)"><path fill="#213644" d="M 68.238281 248.203125 L 328.875 248.203125 L 328.875 325.878906 L 68.238281 325.878906 Z M 68.238281 248.203125 " fill-opacity="1" fill-rule="nonzero"></path></g><g clip-path="url(#d364439205)"><g clip-path="url(#29f016f829)"><path fill="#213644" d="M 108.683594 211.433594 L 124.792969 198.941406 L 172.410156 260.347656 L 156.300781 272.839844 Z M 108.683594 211.433594 " fill-opacity="1" fill-rule="nonzero"></path></g></g><g clip-path="url(#0769d2b95e)"><g clip-path="url(#9c639e2b62)"><path fill="#213644" d="M 94.71875 158.511719 L 110.828125 146.023438 L 190.644531 248.953125 L 174.539062 261.445312 Z M 94.71875 158.511719 " fill-opacity="1" fill-rule="nonzero"></path></g></g><g clip-path="url(#14b1bda6a3)"><path fill="#213644" d="M 112.636719 178.226562 L 92.253906 178.226562 L 92.253906 136.1875 L 112.636719 136.1875 Z M 112.636719 178.226562 " fill-opacity="1" fill-rule="nonzero"></path></g><g clip-path="url(#f3d999e2e5)"><g clip-path="url(#048e707957)"><path fill="#c6ab7c" d="M 84.636719 129.949219 L 102.660156 119.1875 L 109.742188 131.046875 L 91.71875 141.808594 Z M 84.636719 129.949219 " fill-opacity="1" fill-rule="nonzero"></path></g></g><path stroke-linecap="butt" transform="matrix(0.75, 0.000000000000000242, -0.000000000000000242, 0.75, 55.310636, 261.429093)" fill="none" stroke-linejoin="miter" d="M 0.00248524 1.000792 L 352.502508 1.000792 " stroke="#c6ab7c" stroke-width="2" stroke-opacity="1" stroke-miterlimit="4"></path></svg></svg></g></g></svg></g><g id="dark-icon"><svg xmlns="http://www.w3.org/2000/svg" version="1.1" xmlns:xlink="http://www.w3.org/1999/xlink" xmlns:svgjs="http://svgjs.dev/svgjs" width="1000" height="1000"><g><g transform="matrix(2,0,0,2,0,0)"><svg xmlns="http://www.w3.org/2000/svg" version="1.1" xmlns:xlink="http://www.w3.org/1999/xlink" xmlns:svgjs="http://svgjs.dev/svgjs" width="500" height="500"><svg xmlns="http://www.w3.org/2000/svg" xmlns:xlink="http://www.w3.org/1999/xlink" width="500" zoomAndPan="magnify" viewBox="0 0 375 374.999991" height="500" preserveAspectRatio="xMidYMid meet" version="1.0"><defs><clipPath id="8fc92a942e"><path d="M 79.023438 55.625 L 295.773438 55.625 L 295.773438 319.625 L 79.023438 319.625 Z M 79.023438 55.625 " clip-rule="nonzero"></path></clipPath><clipPath id="3f1d87623c"><path d="M 26.542969 47.675781 L 348.292969 47.675781 L 348.292969 136.175781 L 26.542969 136.175781 Z M 26.542969 47.675781 " clip-rule="nonzero"></path></clipPath><clipPath id="34ba0b7ec4"><path d="M 251.003906 75 L 260.703125 75 L 260.703125 96.878906 L 251.003906 96.878906 Z M 251.003906 75 " clip-rule="nonzero"></path></clipPath><clipPath id="e6f8493f6b"><path d="M 68.238281 248.203125 L 329 248.203125 L 329 325.878906 L 68.238281 325.878906 Z M 68.238281 248.203125 " clip-rule="nonzero"></path></clipPath><clipPath id="d364439205"><path d="M 108 198 L 173 198 L 173 273 L 108 273 Z M 108 198 " clip-rule="nonzero"></path></clipPath><clipPath id="29f016f829"><path d="M 108.683594 211.433594 L 124.792969 198.941406 L 172.390625 260.324219 L 156.285156 272.8125 Z M 108.683594 211.433594 " clip-rule="nonzero"></path></clipPath><clipPath id="0769d2b95e"><path d="M 94 146 L 191 146 L 191 262 L 94 262 Z M 94 146 " clip-rule="nonzero"></path></clipPath><clipPath id="9c639e2b62"><path d="M 94.71875 158.511719 L 110.828125 146.023438 L 190.628906 248.9375 L 174.523438 261.425781 Z M 94.71875 158.511719 " clip-rule="nonzero"></path></clipPath><clipPath id="14b1bda6a3"><path d="M 92.253906 136.199219 L 112.636719 136.199219 L 112.636719 178.226562 L 92.253906 178.226562 Z M 92.253906 136.199219 " clip-rule="nonzero"></path></clipPath><clipPath id="f3d999e2e5"><path d="M 84 119 L 110 119 L 110 142 L 84 142 Z M 84 119 " clip-rule="nonzero"></path></clipPath><clipPath id="048e707957"><path d="M 84.636719 129.949219 L 102.644531 119.195312 L 109.726562 131.054688 L 91.71875 141.808594 Z M 84.636719 129.949219 " clip-rule="nonzero"></path></clipPath></defs><rect x="-37.5" width="450" fill="#ffffff" y="-37.499999" height="449.999989" fill-opacity="1"></rect><rect x="-37.5" width="450" fill="#213644" y="-37.499999" height="449.999989" fill-opacity="1"></rect><g clip-path="url(#8fc92a942e)"><path fill="#c6ab7c" d="M 94.339844 139.828125 L 167.542969 238.558594 L 92.566406 159.328125 L 92.566406 250.257812 L 140.070312 277.554688 L 166.835938 293.152344 L 186.332031 319.386719 C 185.625 319.207031 184.738281 319.035156 184.027344 318.5 L 133.335938 289.253906 L 82.464844 260.007812 C 80.335938 258.765625 79.097656 256.464844 79.097656 254.160156 L 79.097656 136.816406 C 79.097656 134.15625 80.691406 131.675781 82.996094 130.613281 L 84.769531 129.726562 Z M 260.78125 112.710938 L 260.78125 69.105469 L 250.675781 69.105469 L 250.675781 98.527344 L 237.03125 90.90625 L 237.03125 55.632812 L 274.253906 55.632812 L 274.253906 120.507812 L 292.507812 130.96875 C 294.636719 132.207031 295.875 134.511719 295.875 136.816406 L 295.875 254.160156 C 295.875 256.816406 294.28125 259.121094 291.796875 260.183594 L 241.636719 289.253906 L 201.398438 312.472656 L 200.515625 311.589844 L 199.980469 313.359375 L 192.539062 303.253906 L 191.828125 302.546875 L 192.007812 302.371094 L 118.625 203.640625 L 204.769531 294.925781 L 234.902344 277.554688 L 282.230469 250.257812 L 282.230469 140.714844 L 260.78125 128.308594 Z M 190.941406 72.296875 L 241.636719 101.722656 L 250.675781 106.859375 L 250.675781 122.457031 L 234.902344 113.242188 L 187.398438 85.941406 L 140.070312 113.242188 L 106.925781 132.386719 L 98.769531 121.574219 L 133.335938 101.722656 L 184.027344 72.296875 C 186.332031 71.054688 188.8125 71.234375 190.941406 72.296875 " fill-opacity="1" fill-rule="nonzero"></path></g><path fill="#c6ab7c" d="M 213.277344 117.140625 L 213.277344 134.335938 C 213.277344 135.753906 212.035156 136.992188 210.617188 136.992188 L 193.421875 136.992188 C 192.007812 136.992188 190.765625 135.753906 190.765625 134.335938 L 190.765625 117.140625 C 190.765625 115.722656 192.007812 114.480469 193.421875 114.480469 L 210.617188 114.480469 C 212.035156 114.480469 213.277344 115.722656 213.277344 117.140625 " fill-opacity="1" fill-rule="evenodd"></path><path fill="#c6ab7c" d="M 213.277344 148.515625 L 213.277344 165.707031 C 213.277344 167.128906 212.035156 168.367188 210.617188 168.367188 L 193.421875 168.367188 C 192.007812 168.367188 190.765625 167.128906 190.765625 165.707031 L 190.765625 148.515625 C 190.765625 146.921875 192.007812 145.855469 193.421875 145.855469 L 210.617188 145.855469 C 212.035156 145.855469 213.277344 146.921875 213.277344 148.515625 " fill-opacity="1" fill-rule="evenodd"></path><path fill="#c6ab7c" d="M 184.207031 117.140625 L 184.207031 134.335938 C 184.207031 135.753906 182.964844 136.992188 181.546875 136.992188 L 164.355469 136.992188 C 162.761719 136.992188 161.695312 135.753906 161.695312 134.335938 L 161.695312 117.140625 C 161.695312 115.722656 162.761719 114.480469 164.355469 114.480469 L 181.546875 114.480469 C 182.964844 114.480469 184.207031 115.722656 184.207031 117.140625 " fill-opacity="1" fill-rule="evenodd"></path><path fill="#c6ab7c" d="M 184.207031 148.515625 L 184.207031 165.707031 C 184.207031 167.128906 182.964844 168.367188 181.546875 168.367188 L 164.355469 168.367188 C 162.761719 168.367188 161.695312 167.128906 161.695312 165.707031 L 161.695312 148.515625 C 161.695312 146.921875 162.761719 145.855469 164.355469 145.855469 L 181.546875 145.855469 C 182.964844 145.855469 184.207031 146.921875 184.207031 148.515625 " fill-opacity="1" fill-rule="evenodd"></path><g clip-path="url(#3f1d87623c)"><path fill="#c6ab7c" d="M 187.5 61.582031 L 348.457031 136.144531 L 188.121094 48.261719 L 187.851562 47.730469 L 187.5 47.921875 L 187.148438 47.730469 L 186.878906 48.261719 L 26.542969 136.144531 L 187.5 61.582031 " fill-opacity="1" fill-rule="nonzero"></path></g><g clip-path="url(#34ba0b7ec4)"><path fill="#213644" d="M 251.003906 75 L 260.703125 75 L 260.703125 96.863281 L 251.003906 96.863281 Z M 251.003906 75 " fill-opacity="1" fill-rule="nonzero"></path></g><g clip-path="url(#e6f8493f6b)"><path fill="#213644" d="M 68.238281 248.203125 L 328.875 248.203125 L 328.875 325.878906 L 68.238281 325.878906 Z M 68.238281 248.203125 " fill-opacity="1" fill-rule="nonzero"></path></g><g clip-path="url(#d364439205)"><g clip-path="url(#29f016f829)"><path fill="#213644" d="M 108.683594 211.433594 L 124.792969 198.941406 L 172.410156 260.347656 L 156.300781 272.839844 Z M 108.683594 211.433594 " fill-opacity="1" fill-rule="nonzero"></path></g></g><g clip-path="url(#0769d2b95e)"><g clip-path="url(#9c639e2b62)"><path fill="#213644" d="M 94.71875 158.511719 L 110.828125 146.023438 L 190.644531 248.953125 L 174.539062 261.445312 Z M 94.71875 158.511719 " fill-opacity="1" fill-rule="nonzero"></path></g></g><g clip-path="url(#14b1bda6a3)"><path fill="#213644" d="M 112.636719 178.226562 L 92.253906 178.226562 L 92.253906 136.1875 L 112.636719 136.1875 Z M 112.636719 178.226562 " fill-opacity="1" fill-rule="nonzero"></path></g><g clip-path="url(#f3d999e2e5)"><g clip-path="url(#048e707957)"><path fill="#c6ab7c" d="M 84.636719 129.949219 L 102.660156 119.1875 L 109.742188 131.046875 L 91.71875 141.808594 Z M 84.636719 129.949219 " fill-opacity="1" fill-rule="nonzero"></path></g></g><path stroke-linecap="butt" transform="matrix(0.75, 0.000000000000000242, -0.000000000000000242, 0.75, 55.310636, 261.429093)" fill="none" stroke-linejoin="miter" d="M 0.00248524 1.000792 L 352.502508 1.000792 " stroke="#c6ab7c" stroke-width="2" stroke-opacity="1" stroke-miterlimit="4"></path></svg></svg></g></g></svg></g></svg>